<?xml version="1.0" encoding="UTF-8" standalone="no"?>
<!-- Created with Inkscape (http://www.inkscape.org/) -->

<svg
   width="22.653437mm"
   height="21.000443mm"
   viewBox="0 0 22.653437 21.000443"
   version="1.1"
   id="svg5"
   inkscape:version="1.1.2 (b8e25be8, 2022-02-05)"
   sodipodi:docname="logo.svg"
   xmlns:inkscape="http://www.inkscape.org/namespaces/inkscape"
   xmlns:sodipodi="http://sodipodi.sourceforge.net/DTD/sodipodi-0.dtd"
   xmlns:xlink="http://www.w3.org/1999/xlink"
   xmlns="http://www.w3.org/2000/svg"
   xmlns:svg="http://www.w3.org/2000/svg">
  <sodipodi:namedview
     id="namedview7"
     pagecolor="#ffffff"
     bordercolor="#666666"
     borderopacity="1.0"
     inkscape:pageshadow="2"
     inkscape:pageopacity="0.0"
     inkscape:pagecheckerboard="0"
     inkscape:document-units="mm"
     showgrid="false"
     inkscape:zoom="5.0893753"
     inkscape:cx="27.213556"
     inkscape:cy="28.785458"
     inkscape:window-width="1764"
     inkscape:window-height="957"
     inkscape:window-x="14"
     inkscape:window-y="25"
     inkscape:window-maximized="0"
     inkscape:current-layer="layer1"
     fit-margin-top="0"
     fit-margin-left="0"
     fit-margin-right="0"
     fit-margin-bottom="0" />
  <defs
     id="defs2" />
  <g
     inkscape:label="Layer 1"
     inkscape:groupmode="layer"
     id="layer1"
     transform="translate(-82.863514,-137.77398)">
    <g
       style="fill:#ffffff;fill-rule:evenodd;stroke:#000000;stroke-linecap:round;stroke-linejoin:round"
       id="g847"
       transform="matrix(0.35395993,0,0,0.35395993,82.686536,137.597)">
      <use
         xlink:href="#A"
         x="0.5"
         y="0.5"
         id="use824"
         width="100%"
         height="100%" />
      <symbol
         id="A"
         overflow="visible">
        <g
           stroke="none"
           fill-rule="nonzero"
           id="g832">
          <path
             d="M 14.518,59.33 C 6.493,59.321 -0.006,52.809 0,44.785 0.006,36.761 6.515,30.259 14.54,30.262 A 14.54,14.54 0 0 1 29.07,44.796 C 29.06,52.826 22.55,59.33 14.52,59.33 Z"
             fill="#ca3c32"
             id="path826" />
          <path
             d="M 49.45,59.33 C 41.425,59.32 34.926,52.81 34.932,44.785 34.938,36.76 41.447,30.259 49.472,30.262 57.497,30.265 64,36.77 64,44.795 63.99,52.825 57.48,59.329 49.45,59.329 Z"
             fill="#9259a3"
             id="path828" />
          <path
             d="M 31.992,29.069 C 23.965,29.069 17.458,22.562 17.458,14.535 17.458,6.508 23.965,0 31.992,0 40.019,0 46.526,6.508 46.526,14.535 A 14.52,14.52 0 0 1 31.992,29.069 Z"
             fill="#399746"
             id="path830" />
        </g>
      </symbol>
    </g>
    <path
       d="m 100.16119,145.71466 v 7.40834 a 0.26458333,0.26458333 0 0 1 -0.264587,0.26458 H 90.900787 A 0.26458333,0.26458333 0 0 1 90.636204,153.123 v -7.9375 a 0.26458333,0.26458333 0 0 1 0.264583,-0.26459 h 2.64583 a 0.264585,0.264585 0 0 1 0,0.52917 h -2.381246 v 3.17513 h 2.116666 V 146.773 a 0.264585,0.264585 0 0 1 0.52917,0 v 1.85221 h 0.52916 a 0.26437431,0.26437431 0 0 1 0.26446,0.26445 v 2.11667 a 0.26445369,0.26445369 0 0 1 -0.5289,0 v -1.85221 h -0.52864 l -6.7e-4,1.3e-4 -6.4e-4,-1.3e-4 h -2.380606 v 3.70429 h 4.497916 v -2.38125 a 0.264585,0.264585 0 0 1 0.52917,0 v 2.38125 h 3.439566 v -3.70416 h -3.704156 a 0.26458333,0.26458333 0 0 1 -0.26458,-0.26459 v -1.5875 a 0.264585,0.264585 0 0 1 0.52917,0 v 1.32292 h 3.439566 v -2.64583 h -1.322911 a 0.264585,0.264585 0 0 1 0,-0.52917 h 1.587491 a 0.26458333,0.26458333 0 0 1 0.264587,0.26458 z m 1.5875,-2.11666 v 10.58527 a 0.79020194,0.79020194 0 0 1 -0.79039,0.79375 h -0.005 l -13.227513,-0.002 a 1.8543296,1.8543296 0 0 1 -1.852083,-1.85208 v -10.05417 a 1.8509456,1.8509456 0 0 1 3.683045,-0.26458 h 6.789068 l 3.349126,-3.35406 2.6e-4,-2.7e-4 a 1.1999992,1.1999992 0 1 1 1.696797,1.69731 l -1.654567,1.65702 h 1.217507 a 0.79461783,0.79461783 0 0 1 0.79375,0.79375 z m -1.987377,-3.46533 -3.856426,3.86196 0.28757,0.28756 3.859173,-3.85919 z m -4.305246,5.26018 0.94175,-0.15702 -0.78488,-0.78488 z m 5.253953,-4.31146 -0.28425,-0.28426 -3.859183,3.8592 0.287081,0.28707 z m -0.5681,-1.31638 0.93565,0.93565 a 0.6627151,0.6627151 0 0 0 -0.0596,-0.87646 0.67015519,0.67015519 0 0 0 -0.87606,-0.0592 z m -13.739049,12.06298 a 1.8493449,1.8493449 0 0 1 2.645833,0 v -8.75916 a 1.3229167,1.3229167 0 0 0 -2.645833,0 z M 101.21952,143.598 a 0.26492729,0.26492729 0 0 0 -0.26458,-0.26459 h -1.745904 l -2.300218,2.30361 a 0.26477119,0.26477119 0 0 1 -0.143671,0.074 l -1.5875,0.26458 a 0.26156708,0.26156708 0 0 1 -0.0435,0.004 0.26462302,0.26462302 0 0 1 -0.26096,-0.30812 l 0.26458,-1.5875 a 0.26496433,0.26496433 0 0 1 0.0738,-0.14341 l 0.60592,-0.60681 h -6.239556 v 9.78959 a 0.2645835,0.2645835 0 0 1 -0.529167,0 1.3229167,1.3229167 0 1 0 -1.322917,1.32291 l 13.229153,0.002 a 0.26118608,0.26118608 0 0 0 0.26458,-0.26455 z"
       id="path849"
       style="stroke-width:0.264583" />
  </g>
</svg>
